<?xml version="1.0" standalone="no"?>
<!DOCTYPE svg PUBLIC "-//W3C//DTD SVG 20010904//EN"
 "http://www.w3.org/TR/2001/REC-SVG-20010904/DTD/svg10.dtd">
<svg version="1.0" xmlns="http://www.w3.org/2000/svg"
 width="160.000000pt" height="160.000000pt" viewBox="0 0 160.000000 160.000000"
 preserveAspectRatio="xMidYMid meet">
<metadata>
Created by potrace 1.14, written by Peter Selinger 2001-2017
</metadata>
<g transform="translate(0.000000,160.000000) scale(0.100000,-0.100000)"
fill="#000000" stroke="none">
<path d="M338 1583 c-78 -3 -109 -8 -118 -18 -16 -20 -60 -20 -60 0 0 12 -15
15 -75 15 l-75 0 0 -785 0 -785 100 0 100 0 0 426 c-1 388 1 428 16 445 16 18
42 19 566 19 535 0 548 0 568 -20 19 -19 20 -33 20 -445 l0 -425 93 0 c59 0
97 4 105 12 9 9 12 188 12 742 l0 730 -42 43 -42 43 -112 0 c-90 0 -113 -3
-118 -15 -7 -19 -46 -20 -46 -1 0 9 -18 15 -52 20 -52 6 -625 5 -840 -1z m820
-253 l-3 -245 -344 -3 c-245 -2 -348 1 -357 9 -11 9 -14 60 -14 248 l0 236
360 0 360 0 -2 -245z m-1038 -1170 c0 -28 -3 -30 -35 -30 -32 0 -35 2 -35 30
0 28 3 30 35 30 32 0 35 -2 35 -30z m1418 -2 c3 -27 1 -28 -38 -28 -42 0 -58
15 -46 46 4 11 17 14 43 12 33 -3 38 -7 41 -30z"/>
<path d="M865 1538 c-3 -8 -4 -95 -3 -193 l3 -180 58 -9 c35 -6 76 -6 105 0
l47 9 0 190 0 190 -103 3 c-78 2 -104 0 -107 -10z"/>
<path d="M1090 1139 c0 -6 -7 -9 -15 -5 -8 3 -15 1 -15 -4 0 -6 -9 -5 -20 2
-15 10 -22 10 -32 0 -16 -16 -31 -16 -22 1 5 8 2 8 -9 -2 -11 -9 -17 -10 -17
-2 0 6 -5 11 -11 11 -8 0 -7 -5 1 -15 7 -9 9 -19 5 -23 -4 -4 -10 -2 -12 5 -3
7 -17 9 -40 6 -26 -4 -34 -3 -29 5 4 7 3 12 -3 12 -6 0 -15 -9 -21 -20 -10
-19 -7 -20 142 -17 l153 2 3 30 c2 23 0 26 -7 15 -9 -12 -14 -13 -31 -2 -14 8
-20 9 -20 1z m-60 -19 c0 -5 -4 -10 -10 -10 -5 0 -10 5 -10 10 0 6 5 10 10 10
6 0 10 -4 10 -10z"/>
<path d="M605 1130 c-3 -5 -1 -10 4 -10 6 0 11 5 11 10 0 6 -2 10 -4 10 -3 0
-8 -4 -11 -10z"/>
<path d="M454 1117 c3 -10 6 -21 6 -23 0 -2 35 -4 79 -4 63 0 81 3 92 18 13
15 12 16 -3 4 -20 -16 -51 -12 -60 8 -5 12 -7 10 -8 -5 -1 -20 -1 -20 -15 -1
-8 11 -15 15 -15 9 0 -6 -7 -14 -16 -17 -12 -5 -15 -2 -10 11 7 17 6 17 -10 1
-16 -16 -18 -16 -32 0 -13 16 -13 16 -8 -1z"/>
<path d="M656 1104 c-18 -13 -14 -14 41 -14 40 0 63 4 66 13 3 8 -3 13 -14 13
-11 0 -19 -4 -19 -8 0 -11 -34 -10 -45 1 -6 6 -17 4 -29 -5z"/>
<path d="M795 1110 c-9 -15 -1 -23 21 -18 15 3 16 4 1 16 -11 9 -17 10 -22 2z"/>
<path d="M252 858 c-7 -7 -12 -31 -12 -55 l0 -43 555 0 555 0 0 36 c0 19 -5
44 -10 55 -10 18 -27 19 -543 19 -401 0 -536 -3 -545 -12z"/>
</g>
</svg>
